<?xml version="1.0" encoding="UTF-8"?>
<svg xmlns="http://www.w3.org/2000/svg" viewBox="0 0 993.13 993.13">
  <defs>
    <style>
      .cls-1 {
        fill: #000;
        stroke-width: 0px;
      }

      .cls-2 {
        fill: #fff;
        stroke: #000;
        stroke-width: 5.4px;
      }

      .cls-2, .cls-3 {
        stroke-miterlimit: 10;
      }

      .cls-3 {
        fill: none;
        stroke: #e6007e;
      }
    </style>
  </defs>
  <g id="ArtWork">
    <g>
      <g>
        <path class="cls-1" d="M230.25,379.28l6.72-10.07-62.05-41.43-6.72,10.07-1.27-.85,11.51-17.24c.48-.73.95-1.46,1.41-2.21s.89-1.5,1.32-2.27c.48-.73.95-1.46,1.41-2.21s.92-1.48,1.41-2.21c2.38-3.57,4.68-6.58,6.89-9.04,2.21-2.46,5.04-4.24,8.49-5.35,3.05-1.03,5.89-1.29,8.53-.8,2.64.5,4.87,1.35,6.68,2.56.91.61,1.96,1.55,3.16,2.83,1.2,1.28,2.17,2.98,2.9,5.08.74,2.11,1.02,4.64.84,7.58-.17,2.95-1.22,6.31-3.14,10.1l.18.12c.77-.89,1.87-2.05,3.31-3.49,1.44-1.44,3.13-2.76,5.07-3.96,1.94-1.2,4.04-2.09,6.31-2.67,2.27-.58,4.64-.49,7.09.28,1.45.45,3,1.11,4.64,1.98,1.64.88,3.31,1.82,5,2.82,1.69,1,3.33,1.96,4.9,2.88,1.57.92,2.95,1.6,4.14,2.04,1.82.69,3.62,1.06,5.41,1.12,1.79.06,3.28-.78,4.45-2.54.52-.78.92-1.7,1.18-2.75.26-1.05.28-2.13.06-3.24l1.54-.15c.04.46.06.98.07,1.56,0,.58-.07,1.25-.23,2.01-.16.77-.46,1.64-.89,2.62-.44.98-1.08,2.1-1.92,3.37-1.62,2.42-3.26,4.23-4.94,5.43-1.67,1.2-3.42,1.89-5.25,2.07-1.83.18-3.75-.08-5.78-.78-2.03-.7-4.25-1.72-6.67-3.08l-8.68-4.88c-3.19-1.78-5.95-2.75-8.29-2.91-2.34-.16-4.34.14-5.99.92-1.65.78-3.02,1.81-4.1,3.1-1.08,1.29-1.96,2.45-2.65,3.48l-6.06,9.07,32.75,21.87,6.72-10.07,1.27.85-19.5,29.21-1.27-.85ZM209.01,337.42l5.57-8.35c1.13-1.69,1.95-3.38,2.45-5.05.51-1.67.56-3.36.17-5.07-.39-1.7-1.31-3.44-2.76-5.19-1.45-1.75-3.57-3.56-6.35-5.42-3.14-2.1-5.94-3.38-8.39-3.83s-4.59-.36-6.43.3c-1.84.66-3.44,1.68-4.81,3.08-1.37,1.4-2.58,2.89-3.63,4.46-.73,1.09-1.45,2.2-2.17,3.34-.72,1.14-1.28,2.14-1.68,3.01l28.03,18.72Z"/>
        <path class="cls-1" d="M285.6,301.88l7.61-5.85-24.24-79.87,2.08-1.6,71.12,43.85,7.7-5.92.93,1.21-26.64,20.47-.93-1.21,9.6-7.38-27.56-17.07-20.07,15.42,9.4,31.02,9.6-7.38.93,1.21-18.59,14.29-.93-1.21ZM274.96,229.86l9.83,32.48,19.03-14.62-28.86-17.86Z"/>
        <path class="cls-1" d="M436.38,192.39l-8.28,2.76,7.84,23.49-1.24.41c-1.01-.5-1.81-.81-2.38-.93-.57-.11-1.38,0-2.41.35-1.24.41-2.39,1.16-3.45,2.24-1.06,1.08-2.29,2.32-3.71,3.71-1.41,1.39-3.15,2.8-5.21,4.21-2.06,1.41-4.71,2.67-7.95,3.75-4.9,1.64-9.51,2.28-13.85,1.92-4.34-.35-8.85-1.7-13.54-4.05-4.6-2.3-8.82-5.41-12.66-9.34-3.84-3.93-6.74-8.83-8.7-14.69-1.31-3.93-2.05-7.61-2.2-11.05-.15-3.44.02-6.54.51-9.31.49-2.77,1.15-5.17,1.96-7.21.82-2.03,1.52-3.65,2.12-4.85,2.07-4.14,4.78-7.84,8.14-11.11,3.35-3.27,7.58-5.75,12.69-7.46,2.62-.87,4.84-1.39,6.67-1.54,1.83-.15,3.45-.17,4.86-.07s2.69.19,3.83.27c1.14.08,2.33-.09,3.57-.5,1.38-.46,2.3-.98,2.76-1.55.46-.57.85-1.3,1.17-2.17l1.55-.52,6.91,20.69-1.14.38c-.87-1.7-2.11-3.62-3.71-5.78-1.6-2.15-3.61-4.04-6.04-5.69-2.43-1.64-5.29-2.76-8.59-3.34-3.3-.58-7.12-.15-11.47,1.3-5.17,1.73-8.97,4.2-11.38,7.42-2.41,3.22-3.91,6.9-4.48,11.04-.57,4.14-.4,8.55.51,13.23.91,4.68,2.13,9.3,3.65,13.85,1.04,3.1,2.21,6.16,3.52,9.17,1.31,3.01,2.76,5.79,4.33,8.33,1.58,2.54,3.34,4.79,5.3,6.74,1.96,1.95,4.14,3.45,6.56,4.48,2.69,1.17,5.26,1.75,7.71,1.74,2.45-.01,5.43-.61,8.95-1.78,2.14-.71,4.16-1.79,6.05-3.23,1.9-1.44,3.45-3.16,4.65-5.18,1.21-2.01,1.97-4.32,2.29-6.92.32-2.6-.03-5.41-1.04-8.45l-2.9-8.69-13.35,4.46-.48-1.45,31.56-10.54.48,1.45Z"/>
        <path class="cls-1" d="M468.22,213.97l9.6.23,31.3-77.38,2.62.06,27.81,78.78,9.7.23-.04,1.53-33.59-.8.04-1.53,12.1.29-10.73-30.59-25.3-.6-12.17,30.04,12.1.29-.04,1.53-23.45-.56.04-1.53ZM505.17,151.24l-12.75,31.45,23.99.57-11.24-32.02Z"/>
        <path class="cls-1" d="M570.63,220.47l11.37,4.17,25.72-70.04-11.37-4.17.53-1.43,21.91,8.05,14.12,68.51.21.07,19.97-54.37-11.37-4.17.52-1.43,24.27,8.91-.52,1.43-11.37-4.17-26.78,72.91-2.05-.75-17.88-84.54-.21-.08-24.18,65.84,11.37,4.17-.53,1.43-24.27-8.91.53-1.43Z"/>
        <path class="cls-1" d="M661.9,258.61l9.47,7.55,46.51-58.34-9.47-7.55.95-1.19,48.79,38.89-11.76,14.76-.94-.75c1.03-2.81,1.79-5.39,2.27-7.75.48-2.36.59-4.59.33-6.71-.27-2.12-1-4.12-2.19-6-1.2-1.88-2.96-3.76-5.29-5.61l-14.16-11.29-21.01,26.36,5.54,4.42c1.88,1.5,3.6,2.59,5.19,3.3,1.58.7,3.21.96,4.9.77,1.69-.19,3.5-.83,5.45-1.93,1.94-1.1,4.25-2.68,6.92-4.74l.94.75-21.14,26.53-.94-.75c.92-1.97,1.77-3.89,2.57-5.76s1.29-3.72,1.47-5.52c.18-1.81-.08-3.57-.79-5.31-.71-1.73-2.09-3.41-4.14-5.04l-6.91-5.51-24.54,30.79,16.12,12.85c3.13,2.49,6.26,3.9,9.4,4.22,3.14.32,6.1.07,8.88-.73,2.78-.8,5.28-1.95,7.49-3.45,2.21-1.49,3.92-2.82,5.14-4l.94.75-14.89,18.68-52.03-41.47.95-1.19Z"/>
        <path class="cls-1" d="M754.56,312.91l.67,1c-2.82,2.85-4.98,5.56-6.51,8.12-1.53,2.56-2.58,4.96-3.18,7.2-.6,2.24-.82,4.32-.68,6.23.15,1.92.52,3.7,1.11,5.37.59,1.66,1.29,3.16,2.1,4.5.81,1.34,1.6,2.58,2.37,3.73,2.15,3.2,4.4,5.5,6.74,6.9,2.34,1.4,4.66,2.21,6.95,2.43,2.29.21,4.46-.02,6.5-.69,2.05-.67,3.79-1.5,5.24-2.47,2.11-1.42,3.66-3.03,4.64-4.83.98-1.8,1.59-3.66,1.84-5.57s.22-3.81-.07-5.67c-.29-1.86-.68-3.55-1.17-5.06l-3.83-12.54c-1.78-5.9-2.27-10.94-1.47-15.11.79-4.17,3.27-7.65,7.43-10.45,2.72-1.83,5.56-3.04,8.53-3.63,2.97-.6,5.89-.59,8.76.03,2.86.62,5.6,1.82,8.21,3.62,2.61,1.8,4.89,4.14,6.83,7.04,1.42,2.11,2.42,4,3.01,5.66.59,1.66,1,3.16,1.24,4.49.23,1.33.45,2.52.63,3.58.19,1.06.56,2.01,1.13,2.86.53.78.99,1.24,1.38,1.37.39.13,1.17.15,2.35.07l.85,1.27-16.39,11.01-.73-1.09c1.93-1.82,3.61-3.85,5.05-6.08,1.43-2.23,2.45-4.56,3.06-6.98.61-2.42.72-4.93.34-7.52-.38-2.59-1.45-5.18-3.19-7.78-.97-1.45-2.24-2.92-3.81-4.4-1.57-1.49-3.34-2.66-5.32-3.52-1.98-.86-4.09-1.26-6.33-1.2-2.24.06-4.57.9-6.98,2.52-1.93,1.3-3.31,2.79-4.15,4.49-.83,1.7-1.3,3.48-1.4,5.34s.04,3.78.44,5.75c.4,1.97.89,3.89,1.46,5.79l3.92,13.27c.41,1.39.9,3.16,1.47,5.32.57,2.16.81,4.47.72,6.94-.09,2.47-.74,4.96-1.94,7.48-1.2,2.52-3.34,4.81-6.42,6.88-2.84,1.91-5.89,3.19-9.17,3.86-3.28.67-6.56.66-9.86-.01-3.3-.67-6.49-2.03-9.57-4.08-3.08-2.05-5.82-4.85-8.21-8.41-.85-1.27-1.59-2.4-2.2-3.38-.62-.99-1.15-1.94-1.6-2.87-.45-.93-.88-1.86-1.3-2.81-.42-.95-.82-2.03-1.21-3.26-.45-1.45-.9-3.03-1.35-4.75-.45-1.71-1.02-3.08-1.71-4.11-.61-.91-1.21-1.4-1.79-1.49-.59-.09-1.26-.05-2.03.11l-.91-1.36,19.47-13.08Z"/>
      </g>
      <g>
        <path class="cls-1" d="M292.23,754.57l.97.71c-1.68,3.64-2.8,6.92-3.36,9.84-.57,2.92-.75,5.54-.55,7.85.2,2.31.69,4.34,1.48,6.09.79,1.75,1.74,3.31,2.86,4.67,1.12,1.36,2.29,2.54,3.51,3.52,1.22.98,2.38,1.88,3.5,2.7,3.11,2.28,6,3.68,8.68,4.2,2.68.52,5.13.5,7.36-.08,2.23-.58,4.19-1.53,5.88-2.86,1.69-1.33,3.06-2.69,4.09-4.1,1.5-2.05,2.41-4.09,2.73-6.12.31-2.02.26-3.98-.16-5.87-.42-1.89-1.08-3.66-1.99-5.31-.91-1.66-1.84-3.11-2.82-4.37l-7.86-10.5c-3.68-4.95-5.85-9.52-6.52-13.71-.67-4.19.48-8.31,3.45-12.35,1.94-2.64,4.2-4.74,6.79-6.31,2.59-1.57,5.34-2.55,8.25-2.95,2.9-.39,5.89-.19,8.95.61,3.06.81,6,2.24,8.82,4.3,2.05,1.5,3.64,2.94,4.76,4.3,1.12,1.36,2.02,2.63,2.69,3.8.67,1.17,1.28,2.22,1.81,3.16.53.93,1.21,1.7,2.03,2.3.76.56,1.35.83,1.76.82.41-.01,1.16-.25,2.23-.73l1.23.9-11.68,15.92-1.06-.77c1.2-2.37,2.09-4.85,2.68-7.44.59-2.59.76-5.12.51-7.61-.25-2.48-1-4.88-2.24-7.18-1.24-2.31-3.12-4.39-5.64-6.23-1.41-1.03-3.1-1.98-5.08-2.85-1.98-.87-4.05-1.37-6.2-1.5-2.15-.14-4.27.2-6.36,1.02-2.09.82-3.99,2.4-5.71,4.74-1.38,1.88-2.17,3.75-2.37,5.63-.21,1.88-.04,3.71.5,5.5.53,1.79,1.32,3.54,2.37,5.25,1.04,1.71,2.16,3.36,3.34,4.95l8.19,11.15c.85,1.17,1.92,2.67,3.19,4.5,1.27,1.83,2.28,3.93,3.03,6.28.75,2.36.99,4.92.72,7.69s-1.51,5.66-3.7,8.65c-2.02,2.76-4.46,5-7.31,6.74-2.86,1.74-5.95,2.85-9.28,3.34-3.33.49-6.8.29-10.39-.59-3.6-.88-7.12-2.59-10.58-5.12-1.23-.9-2.31-1.71-3.22-2.43-.92-.72-1.74-1.44-2.48-2.15-.74-.72-1.46-1.46-2.17-2.2-.71-.75-1.46-1.64-2.24-2.66-.92-1.21-1.88-2.54-2.88-4-1.01-1.46-2.01-2.55-3-3.28-.88-.65-1.61-.91-2.19-.8-.58.12-1.2.38-1.87.8l-1.32-.97,13.87-18.91ZM352.44,725.41l-4.93-3.61.83-21.98,1.23.9,4.4,17.43,17.94-1.04,1.23.9-20.71,7.4Z"/>
        <path class="cls-1" d="M387.06,796.74c1.5-5.62,4-10.52,7.49-14.71,3.49-4.19,7.44-7.57,11.86-10.15,4.42-2.58,9.07-4.29,13.96-5.13,4.89-.84,9.51-.68,13.87.49,4.64,1.24,8.88,3.45,12.74,6.62,3.85,3.18,7.03,6.98,9.54,11.41,2.5,4.43,4.15,9.32,4.95,14.65.8,5.33.44,10.81-1.06,16.43-1.31,4.92-3.55,9.48-6.7,13.68-3.16,4.2-6.87,7.69-11.15,10.46-4.28,2.77-8.95,4.68-14.01,5.74-5.06,1.06-10.16.9-15.29-.47-5.27-1.41-9.86-3.8-13.77-7.18-3.92-3.38-7.02-7.31-9.32-11.81-2.3-4.49-3.73-9.35-4.29-14.58-.56-5.23-.16-10.38,1.19-15.43ZM399.18,799.98c-1.69,6.32-2.74,11.95-3.16,16.88-.42,4.93-.06,9.24,1.06,12.93,1.12,3.69,3.02,6.72,5.7,9.09,2.68,2.37,6.3,4.17,10.87,5.39,4.5,1.2,8.51,1.45,12.05.74,3.54-.71,6.71-2.38,9.53-5.02,2.81-2.64,5.27-6.19,7.37-10.68,2.1-4.48,4-9.88,5.69-16.21,1.3-4.85,2.23-9.62,2.81-14.32.58-4.7.45-9.06-.4-13.09-.84-4.03-2.58-7.52-5.22-10.48-2.63-2.96-6.52-5.13-11.64-6.5-5.13-1.37-9.57-1.43-13.33-.18-3.76,1.25-7.01,3.42-9.75,6.48-2.74,3.07-5.03,6.78-6.88,11.15-1.84,4.36-3.41,8.97-4.71,13.81Z"/>
        <path class="cls-1" d="M506.85,856.1l12.01-1.5-9.26-74.03-12.01,1.5-.19-1.51,33.99-4.25.19,1.52-11.15,1.39,4.31,34.42,1.08-.14,28.38-38.51-11.26,1.41-.19-1.52,22.4-2.8.19,1.52-8.98,1.12-23.85,32.56,44.91,40,7.15-.89.19,1.52-31.28,3.91-.19-1.51,9.74-1.22-37.24-34.04-.87.11,4.77,38.1,11.15-1.4.19,1.51-33.99,4.25-.19-1.51Z"/>
        <path class="cls-1" d="M618.28,833.82l11.13-4.77-29.42-68.57-11.13,4.77-.6-1.4,32.28-13.85.6,1.4-11.13,4.77,29.42,68.57,11.13-4.77.6,1.4-32.28,13.85-.6-1.4Z"/>
        <path class="cls-1" d="M674.06,782.33l.94-.74c3.05,2.59,5.92,4.56,8.58,5.89,2.66,1.33,5.13,2.21,7.41,2.64,2.28.43,4.37.5,6.27.21,1.9-.29,3.66-.79,5.27-1.5,1.61-.71,3.06-1.52,4.33-2.43,1.27-.91,2.45-1.79,3.54-2.64,3.03-2.38,5.16-4.79,6.38-7.24,1.23-2.44,1.86-4.81,1.9-7.11.04-2.3-.35-4.44-1.17-6.43s-1.77-3.67-2.85-5.04c-1.57-2-3.29-3.42-5.16-4.27-1.87-.84-3.77-1.32-5.7-1.42-1.93-.1-3.81.06-5.65.48-1.84.43-3.49.94-4.96,1.54l-12.22,4.75c-5.75,2.21-10.74,3.07-14.96,2.59s-7.87-2.69-10.97-6.64c-2.02-2.57-3.44-5.32-4.25-8.24-.82-2.92-1.02-5.83-.62-8.74.4-2.9,1.4-5.72,3-8.46,1.6-2.73,3.77-5.18,6.51-7.34,2-1.57,3.81-2.71,5.42-3.43,1.61-.71,3.07-1.24,4.38-1.57s2.49-.64,3.53-.9c1.04-.26,1.96-.71,2.76-1.34.74-.58,1.17-1.08,1.27-1.48.1-.4.06-1.18-.11-2.34l1.2-.94,12.2,15.53-1.03.81c-1.96-1.79-4.11-3.31-6.44-4.58-2.33-1.26-4.73-2.11-7.19-2.53-2.46-.42-4.97-.35-7.52.22-2.56.57-5.06,1.83-7.52,3.76-1.37,1.08-2.74,2.45-4.11,4.13-1.37,1.68-2.4,3.53-3.12,5.57s-.95,4.17-.73,6.4c.22,2.23,1.24,4.49,3.03,6.77,1.44,1.83,3.03,3.1,4.79,3.8,1.75.7,3.56,1.04,5.43,1,1.87-.03,3.77-.32,5.7-.87,1.93-.55,3.82-1.17,5.66-1.88l12.94-4.89c1.36-.51,3.09-1.13,5.19-1.86,2.11-.73,4.4-1.14,6.87-1.23s5.01.37,7.6,1.38c2.6,1.01,5.04,2.97,7.33,5.89,2.11,2.69,3.62,5.64,4.53,8.86.91,3.22,1.15,6.5.72,9.84-.43,3.34-1.55,6.62-3.36,9.85-1.81,3.23-4.41,6.17-7.78,8.81-1.2.94-2.27,1.76-3.21,2.45-.94.69-1.85,1.29-2.74,1.81-.89.51-1.79,1.01-2.71,1.5-.91.49-1.97.97-3.16,1.45-1.41.56-2.96,1.12-4.63,1.7-1.68.58-3,1.25-3.97,2.01-.86.67-1.31,1.31-1.35,1.9-.05.59.04,1.26.26,2.01l-1.29,1.01-14.49-18.44Z"/>
      </g>
      <circle class="cls-1" cx="748.71" cy="205.41" r="8.81"/>
      <g>
        <rect class="cls-1" x="501.23" y="446.3" width="5.34" height="255.6"/>
        <rect class="cls-1" x="479.51" y="612.06" width="166.64" height="5.34" transform="translate(-269.84 578.27) rotate(-45.02)"/>
        <rect class="cls-1" x="619.86" y="553.87" width="47.3" height="5.34"/>
        <rect class="cls-1" x="661.84" y="553.86" width="5.34" height="43.05"/>
        <rect class="cls-1" x="624.12" y="591.56" width="43.05" height="5.34"/>
        <path class="cls-1" d="M501.66,598.08l40.81,40.79,43.45-43.48-43.47-43.45-40.84,40.87c.04.09.11.14.11.26,0,1.67-.02,3.34-.06,5.01ZM506.55,595.41l35.89-35.92,35.91,35.9-35.89,35.92-35.91-35.9Z"/>
        <path class="cls-1" d="M501.58,514.14l40.84-40.87,43.47,43.45-18.17,18.18c-1.12-1.39-2.34-2.7-3.54-4.02l14.15-14.16-35.91-35.9-35.89,35.92.3.3c-.47.26-.91.61-1.26,1.15-.68,1.03-1.45,1.97-2.21,2.93l-1.72-1.72c.03-1.67.06-3.34.06-5.01,0-.11-.08-.17-.11-.26Z"/>
        <polygon class="cls-1" points="479.11 446.31 503.88 471.07 528.63 446.3 536.18 446.3 503.88 478.62 471.55 446.31 479.11 446.31"/>
        <rect class="cls-1" x="442.51" y="531.28" width="5.34" height="166.64" transform="translate(-304.23 495.01) rotate(-45.02)"/>
        <rect class="cls-1" x="340.82" y="553.78" width="47.31" height="5.34"/>
        <rect class="cls-1" x="340.8" y="553.79" width="5.34" height="43.05"/>
        <rect class="cls-1" x="340.83" y="591.48" width="43.05" height="5.34"/>
        <path class="cls-1" d="M506.29,592.9c0-.11.07-.17.11-.26l-40.86-40.84-43.45,43.48,43.47,43.45,40.79-40.81c-.03-1.67-.06-3.34-.06-5.01ZM465.55,631.17l-35.91-35.9,35.89-35.92,35.91,35.9-35.89,35.92Z"/>
        <path class="cls-1" d="M506.38,513.98l-40.86-40.84-43.45,43.48,18.18,18.17c1.12-1.39,2.34-2.7,3.54-4.02l-14.16-14.15,35.89-35.92,35.91,35.9-.3.3c.47.26.91.61,1.27,1.15.68,1.03,1.45,1.97,2.21,2.93l1.72-1.72c-.03-1.67-.06-3.34-.06-5.01,0-.11.07-.17.11-.26Z"/>
        <polygon class="cls-1" points="528.81 446.14 504.06 470.91 479.29 446.15 471.73 446.16 504.06 478.46 536.37 446.14 528.81 446.14"/>
      </g>
      <circle class="cls-1" cx="188.39" cy="549.34" r="19.39"/>
      <circle class="cls-1" cx="801.64" cy="549.34" r="19.39"/>
      <g>
        <line class="cls-2" x1="503.87" y1="300.18" x2="503.87" y2="410.45"/>
        <line class="cls-2" x1="549.29" y1="386.56" x2="458.45" y2="324.07"/>
        <line class="cls-2" x1="458.45" y1="386.56" x2="549.29" y2="324.07"/>
      </g>
    </g>
  </g>
  <g id="CutLine">
    <circle class="cls-3" cx="496.57" cy="496.57" r="496.07"/>
  </g>
</svg>